HIERARCHY
ROOT pelvis
{
  OFFSET 0 100 0
  CHANNELS 6 Xposition Yposition Zposition Zrotation Xrotation Yrotation
  JOINT pelvis_right_femur
  {
    OFFSET -10.78128 -3.44521 -0.5502486
    CHANNELS 3 Zrotation Xrotation Yrotation
    JOINT right_femur_tibia
    {
      OFFSET -0.8047443 -44.0398 -0.1307829
      CHANNELS 3 Zrotation Xrotation Yrotation
      JOINT right_tibia_foot
      {
        OFFSET 3.006224 -47.83518 -5
        CHANNELS 3 Zrotation Xrotation Yrotation
        End Site
        {
          OFFSET 0 -5 15
        }
      }
    }
  }
  JOINT pelvis_left_femur
  {
    OFFSET 10.78128 -3.44521 -0.5502486
    CHANNELS 3 Zrotation Xrotation Yrotation
    JOINT left_femur_tibia
    {
      OFFSET 0.8047443 -44.0398 -0.1307829
      CHANNELS 3 Zrotation Xrotation Yrotation
      JOINT left_tibia_foot
      {
        OFFSET -4.370144 -48.10324 -4.275266
        CHANNELS 3 Zrotation Xrotation Yrotation
        End Site
        {
          OFFSET 0 -5 15
        }
      }
    }
  }
  JOINT pelvis_spine1
  {
    OFFSET 0 6.468898 -3.129235
    CHANNELS 3 Zrotation Xrotation Yrotation
    JOINT spine1
    {
      OFFSET 0 23.15396 4.99043
      CHANNELS 3 Zrotation Xrotation Yrotation
      JOINT spine2
      {
        OFFSET 0 20.79997 -5.064912
        CHANNELS 3 Zrotation Xrotation Yrotation
        JOINT neck
        {
          OFFSET 0 14.38658 9.616178
          CHANNELS 3 Zrotation Xrotation Yrotation
          End Site
          {
            OFFSET 0 20 0
          }
        }
      }
      JOINT right_manubrium
      {
        OFFSET -5.722621 16.35077 3.967754
        CHANNELS 3 Zrotation Xrotation Yrotation
        JOINT right_clavicle
        {
          OFFSET -13.16364 1.694482 -4.693211
          CHANNELS 3 Zrotation Xrotation Yrotation
          JOINT right_humerus
          {
            OFFSET -28.5034 -0.3100689 -2.792744
            CHANNELS 3 Zrotation Xrotation Yrotation
            JOINT right_radius
            {
              OFFSET -25.15693 0.02248979 -1.271978
              CHANNELS 3 Zrotation Xrotation Yrotation
              End Site
              {
                OFFSET -15 0 0
              }
            }
          }
        }
      }
      JOINT left_manubrium
      {
        OFFSET 5.722621 16.35077 3.967754
        CHANNELS 3 Zrotation Xrotation Yrotation
        JOINT left_clavicle
        {
          OFFSET 13.16364 1.694482 -4.693211
          CHANNELS 3 Zrotation Xrotation Yrotation
          JOINT left_humerus
          {
            OFFSET 29.39168 -1.063119 -2.237045
            CHANNELS 3 Zrotation Xrotation Yrotation
            JOINT left_radius
            {
              OFFSET 24.59957 -0.9528479 0.9047498
              CHANNELS 3 Zrotation Xrotation Yrotation
              End Site
              {
                OFFSET 15 -0 -0
              }
            }
          }
        }
      }
    }
  }
}
MOTION
Frames: 11
Frame Time: 0.0416666666667
1766.759 103.1496 2182.257 7.223921 -1.142585 75.69149 4.674455 1.900125 4.143045 -0 14.27637 -0 -5.205192 -11.25199 -4.365417 -1.776404 -9.842518 -6.444361 -0 56.88477 -0 -7.649353 -6.424291 15.72123 -1.190662 1.640627 6.160961 0.7634843 9.482804 -4.483234 2.370324 24.19931 4.373366 2.126063 -17.01024 6.495619 3.367195 -15.6349 11.40216 85.05459 29.28941 -14.18446 -0 0 11.60296 -17.47101 11.72458 8.927653 4.090581 -18.60233 -2.904615 -89.3609 25.39078 15.60731 0 0 -15.95893 0.752682 10.51285 12.06214
1772.035 103.2744 2183.639 7.24198 -0.9164848 75.07408 4.439249 6.441764 3.954605 -0 12.11209 -0 -4.740745 -12.66896 -3.478899 -0.7003617 -16.20578 -5.102498 -0 49.76059 -0 -6.703291 -6.853254 17.21308 -1.399925 1.873627 6.831385 0.4007511 9.52644 -3.870922 2.17734 24.05059 4.364879 2.052364 -16.95132 6.270112 2.792861 -17.2382 11.55276 83.37902 28.85843 -11.36467 -0 0 14.27148 -18.70139 11.1851 10.09976 4.336701 -18.16482 -2.715388 -90.52777 24.51591 17.84552 0 0 -14.91298 0.6125716 9.845996 12.04356
1777.353 102.7627 2184.896 6.748742 -0.9521903 74.50301 4.348341 10.29757 3.78475 -0 10.60636 -0 -4.078979 -14.55128 -2.569433 0.6414712 -21.39741 -3.924264 -0 39.4765 -0 -6.012215 -7.280897 18.57054 -1.298304 1.892162 7.190934 0.099328 9.283293 -3.403511 1.986324 23.75667 4.441212 1.909716 -17.07464 6.203616 2.058748 -18.87038 11.50178 81.70248 28.11345 -8.492285 -0 0 17.27037 -19.92029 10.52498 11.37345 4.591884 -17.48069 -2.460149 -91.72965 23.95181 20.14394 0 0 -13.68497 0.2003351 9.279784 12.44215
1782.875 101.7402 2186.034 5.833796 -1.100581 73.90317 4.163163 13.56932 3.516033 -0 10.01134 -0 -3.375211 -16.4327 -1.579937 1.759975 -25.12973 -3.192928 -0 28.75661 -0 -5.528106 -7.402792 19.44943 -1.060045 1.605205 7.389226 -0.1196241 8.878079 -3.123379 1.808133 23.3859 4.596346 1.785741 -17.41077 6.247943 1.337425 -20.31023 11.28273 80.27541 27.40705 -6.040956 -0 0 20.05439 -21.08836 9.868601 12.65739 4.745231 -16.72545 -2.168208 -92.79145 23.71763 22.2928 0 0 -12.45253 -0.3033605 8.908509 13.11984
1788.731 100.4619 2187.092 4.823653 -1.158078 73.24743 3.704626 16.25393 3.219981 -0 10.71379 -0 -2.748595 -17.37306 -0.6475689 2.197035 -27.2295 -3.05398 -0 20.39452 -0 -5.093922 -7.194592 19.79283 -0.9505193 1.029101 7.569742 -0.2686618 8.536871 -3.024964 1.675672 23.00525 4.77482 1.747713 -17.87813 6.325595 0.8189663 -21.34054 10.99806 79.33677 27.02506 -4.436703 -0 0 22.03454 -22.16134 9.363525 13.78299 4.733726 -16.12616 -1.900761 -93.47851 23.66545 23.97433 0 0 -11.45846 -0.6917791 8.668174 13.8183
1795.003 99.22191 2188.123 4.142976 -1.021918 72.58976 2.925326 18.31646 3.11947 -0 13.28233 -0 -2.136407 -16.6638 -0.02671743 1.767667 -27.72557 -3.483545 -0 15.8335 -0 -4.658258 -6.895508 19.78635 -1.117935 0.3072347 7.798572 -0.4113756 8.408865 -3.008226 1.654886 22.67422 4.893093 1.765945 -18.31449 6.42675 0.5527605 -21.87174 10.73161 79.04785 26.80732 -3.798606 -0 0 23.01272 -23.07493 9.078496 14.57934 4.553492 -15.71567 -1.731328 -93.75879 23.67316 25.0832 0 0 -10.69584 -0.9715265 8.416067 14.45517
1801.707 98.29686 2189.163 4.043039 -0.6999259 72.05486 1.886028 19.65004 3.363541 -0 18.16309 -0 -1.441855 -14.09897 0.09890513 0.5618627 -26.8086 -4.340603 -0 14.92763 -0 -4.234235 -6.80227 19.61645 -1.569507 -0.3878688 8.052308 -0.6017077 8.52442 -2.974433 1.771615 22.42452 4.905797 1.771397 -18.62195 6.57072 0.4933603 -21.9539 10.52939 79.45387 26.44821 -4.003708 -0 0 23.1226 -23.73567 8.972858 14.97126 4.231417 -15.40542 -1.7136 -93.76845 23.69621 25.74873 0 0 -10.01134 -1.262644 8.040554 15.09584
1808.775 97.91645 2190.227 4.508141 -0.2609991 71.80282 0.7388481 19.93801 3.902375 -0 25.41125 -0 -0.724779 -9.877606 -0.329919 -1.158526 -24.64239 -5.414553 -0 16.56324 -0 -3.768263 -7.107432 19.36813 -2.238277 -0.9291882 8.219707 -0.8295096 8.861593 -2.932074 1.967667 22.26 4.834042 1.731242 -18.80833 6.738259 0.6102965 -21.69176 10.4251 80.47821 25.89952 -4.874466 -0 0 22.52993 -24.04051 8.950467 14.98711 3.807591 -15.18297 -1.870136 -93.57416 23.71798 26.05519 0 0 -9.388021 -1.579557 7.519753 15.7334
1816.031 98.22022 2191.296 5.327741 0.1921469 71.97572 -0.2771537 18.66164 4.496289 -0 34.5097 -0 -0.2025268 -4.577434 -1.250096 -3.036276 -21.2939 -6.469071 -0 19.23184 -0 -3.15245 -7.869313 19.03828 -3.009224 -1.238926 8.127629 -1.019953 9.382317 -3.006865 2.120797 22.17653 4.75368 1.665231 -18.93144 6.865426 0.9094149 -21.18577 10.44988 81.95846 25.40818 -6.287561 -0 0 21.31954 -23.92981 8.930974 14.71995 3.33775 -15.17373 -2.208572 -93.07684 23.75081 25.88191 0 0 -9.068205 -1.80709 6.945787 16.24322
1823.192 99.19263 2192.324 6.211104 0.5312585 72.63516 -0.8960779 15.34232 4.828764 -0 44.18736 -0 -0.1029996 0.7443776 -2.47395 -4.686778 -16.84404 -7.32561 -0 21.3614 -0 -2.362103 -9.050038 18.5863 -3.710409 -1.273248 7.613118 -1.071181 10.00182 -3.363856 2.104492 22.18077 4.766099 1.618283 -19.02479 6.893403 1.380873 -20.52352 10.6096 83.67552 25.29095 -8.159279 -0 0 19.59783 -23.43446 8.90332 14.28668 2.906297 -15.54355 -2.72549 -92.12917 23.8787 24.98915 0 0 -9.443477 -1.846627 6.519355 16.51551
1829.941 100.6131 2193.252 6.914586 0.622997 73.71723 -0.9685834 9.94522 4.715624 -0 52.45116 -0 -0.4521427 4.61077 -3.756311 -5.798396 -11.56438 -7.963522 -0 21.69493 -0 -1.609119 -10.56155 17.99028 -4.122712 -1.024633 6.638417 -0.9197441 10.539 -4.070858 1.876553 22.29087 4.944429 1.606832 -19.04272 6.845449 1.921973 -19.78755 10.84126 85.37612 25.60676 -10.33404 -0 0 17.66213 -22.68031 8.936105 13.78363 2.633016 -16.30903 -3.375749 -90.75448 24.25985 23.25518 0 0 -10.75149 -1.78362 6.464782 16.61599
